<?xml version="1.0" standalone="no"?>
<!DOCTYPE svg PUBLIC "-//W3C//DTD SVG 20010904//EN"
 "http://www.w3.org/TR/2001/REC-SVG-20010904/DTD/svg10.dtd">
<svg version="1.0" xmlns="http://www.w3.org/2000/svg"
 width="960.000000pt" height="540.000000pt" viewBox="0 0 960.000000 540.000000"
 preserveAspectRatio="xMidYMid meet">

<g transform="translate(0.000000,540.000000) scale(0.100000,-0.100000)"
fill="#000000" stroke="none">
<path d="M1955 4488 c22 -23 54 -55 70 -70 17 -15 26 -28 21 -28 -5 0 -18 8
-28 17 -18 16 -21 15 -58 -22 -22 -22 -40 -43 -40 -47 0 -4 61 -8 135 -8 157
0 148 -7 143 120 l-3 75 -140 3 -140 3 40 -43z m209 0 c-16 -18 -32 -34 -36
-36 -16 -7 -7 -27 30 -67 l37 -40 -40 38 c-46 42 -51 43 -79 20 -12 -10 8 13
44 50 66 69 97 93 44 35z"/>
<path d="M1900 4436 c0 -47 2 -86 3 -86 2 0 23 18 46 39 48 44 47 52 -15 104
l-34 29 0 -86z"/>
<path d="M8315 4397 c-3 -7 -4 -89 -3 -182 l3 -170 120 0 c103 0 120 2 123 16
2 9 -4 23 -12 31 -10 11 -12 18 -4 26 15 15 2 42 -21 42 -11 0 -22 -8 -24 -17
-4 -17 -5 -17 -6 -1 0 10 -12 20 -25 24 -15 3 -27 15 -29 27 -4 22 -4 22 -6 0
-1 -17 -7 -23 -26 -23 -33 0 -35 37 -2 50 18 7 13 9 -25 9 -41 1 -48 4 -48 21
0 25 19 29 135 33 l90 2 0 60 0 60 -118 3 c-90 2 -119 0 -122 -11z m225 -47
l0 -30 -105 0 -105 0 0 30 0 30 105 0 105 0 0 -30z m-170 -155 c0 -18 -5 -25
-19 -25 -11 0 -23 5 -26 10 -11 18 3 40 25 40 15 0 20 -7 20 -25z m0 -60 c0
-18 -5 -25 -19 -25 -11 0 -23 5 -26 10 -11 18 3 40 25 40 15 0 20 -7 20 -25z
m60 5 c0 -24 -26 -38 -42 -22 -16 16 -2 42 22 42 13 0 20 -7 20 -20z m-60 -60
c0 -15 -7 -20 -25 -20 -24 0 -34 18 -18 33 15 15 43 7 43 -13z m60 0 c0 -15
-7 -20 -25 -20 -24 0 -34 18 -18 33 15 15 43 7 43 -13z"/>
<path d="M5458 4254 c-70 -37 -32 -146 49 -144 10 1 0 7 -21 15 -44 15 -56 29
-56 65 0 36 12 50 56 65 21 8 30 14 19 14 -11 0 -32 -6 -47 -15z"/>
<path d="M8450 4251 c0 -25 19 -38 31 -20 12 19 6 33 -14 37 -11 2 -17 -3 -17
-17z"/>
<path d="M5546 4244 c12 -11 24 -26 28 -34 4 -10 5 -9 3 4 -1 10 -13 25 -27
34 l-25 14 21 -18z"/>
<path d="M8508 4223 c6 -2 18 -2 25 0 6 3 1 5 -13 5 -14 0 -19 -2 -12 -5z"/>
<path d="M8492 4190 c0 -14 2 -19 5 -12 2 6 2 18 0 25 -3 6 -5 1 -5 -13z"/>
<path d="M5570 4166 c0 -7 -10 -21 -22 -29 -19 -13 -20 -16 -6 -16 10 -1 24
-13 32 -28 22 -42 94 -106 111 -99 27 10 15 33 -47 92 -41 37 -62 64 -60 76 2
10 1 18 -2 18 -3 0 -6 -6 -6 -14z"/>
<path d="M1337 3568 c-43 -50 -46 -52 -73 -40 -26 13 -29 11 -64 -29 -32 -38
-38 -41 -56 -29 -18 11 -24 9 -48 -15 -22 -22 -30 -24 -41 -15 -12 10 -15 9
-15 -9 0 -21 3 -21 175 -21 l175 0 0 105 c0 58 -2 105 -4 105 -2 0 -24 -23
-49 -52z"/>
<path d="M3815 3491 c-152 -69 -166 -274 -26 -370 46 -31 56 -33 118 -32 59 1
75 6 116 34 82 55 114 150 82 246 -39 117 -175 175 -290 122z m175 -50 c80
-42 105 -157 50 -235 -48 -71 -127 -93 -206 -57 -77 35 -112 125 -83 213 27
84 153 125 239 79z"/>
<path d="M3902 3373 c-1 -29 -6 -53 -12 -53 -5 0 -10 -8 -10 -19 0 -10 -7 -24
-15 -31 -8 -7 -15 -17 -15 -23 0 -5 8 -3 18 5 9 9 26 18 36 19 11 2 21 10 22
17 1 7 0 8 -3 2 -8 -17 -35 -11 -31 8 2 10 11 16 23 14 15 -3 17 -1 8 10 -7 7
-13 34 -16 58 l-4 45 -1 -52z"/>
<path d="M6004 3447 c-2 -7 -3 -85 -2 -172 l3 -160 138 -3 137 -3 0 176 0 175
-57 -2 c-57 -2 -57 -2 -10 -5 l47 -4 0 -155 0 -154 -120 0 -121 0 3 153 3 152
50 6 50 6 -58 1 c-39 1 -59 -2 -63 -11z"/>
<path d="M5760 2849 c-38 -12 -84 -41 -115 -74 -57 -60 -83 -214 -51 -297 37
-91 114 -142 216 -142 72 0 107 14 164 66 47 44 66 102 66 204 0 106 -24 164
-78 191 -20 10 -48 26 -62 35 -33 22 -96 30 -140 17z"/>
<path d="M4286 2843 c-34 -9 -94 -51 -119 -85 -38 -50 -48 -99 -37 -184 14
-111 34 -148 108 -201 114 -83 270 -40 333 90 24 51 29 73 29 139 0 43 -5 84
-10 91 -6 7 -19 24 -30 38 -11 15 -37 36 -57 47 -21 11 -60 31 -87 46 -47 24
-86 30 -130 19z"/>
<path d="M6616 2823 c-14 -15 -5 -118 14 -159 28 -56 61 -69 178 -68 85 0 92
-1 92 -19 0 -15 3 -17 14 -8 34 28 61 -18 50 -87 -6 -37 -5 -38 30 -49 47 -14
53 -5 67 94 16 108 7 149 -36 174 -19 11 -37 29 -40 40 -14 43 -50 54 -185 54
-101 0 -131 3 -152 17 -14 9 -28 14 -32 11z"/>
<path d="M3513 2810 c-26 -11 -57 -55 -48 -70 3 -5 2 -10 -4 -10 -27 0 -41
-33 -41 -96 0 -61 2 -68 32 -97 l33 -32 6 76 c4 42 9 82 13 88 5 7 23 4 59 -9
62 -24 108 -25 148 -5 32 17 29 19 51 -45 7 -20 28 31 28 69 0 15 4 31 9 37 6
5 13 28 17 52 7 47 4 49 -59 31 -30 -8 -54 -7 -107 5 -77 18 -105 19 -137 6z"/>
<path d="M5141 2789 c-78 -40 -131 -162 -85 -199 22 -19 158 0 220 30 l47 23
32 -37 31 -37 17 36 c9 20 17 47 17 62 0 38 -37 92 -68 99 -15 4 -35 14 -45
22 -30 26 -115 27 -166 1z"/>
<path d="M2475 2763 c-11 -3 -33 -15 -50 -27 -16 -12 -42 -27 -57 -33 -16 -7
-30 -23 -34 -39 -9 -34 1 -182 14 -215 10 -25 13 -26 49 -16 l39 10 -4 56 c-3
44 0 60 12 70 13 11 19 11 31 1 12 -10 15 -9 15 7 0 18 7 20 83 19 49 -1 95 4
114 13 61 25 56 86 -10 128 -33 21 -56 27 -112 29 -38 2 -79 0 -90 -3z"/>
<path d="M1874 2078 c-6 -9 61 -233 78 -263 6 -11 28 -74 48 -140 61 -196 97
-305 132 -397 l33 -88 108 0 c102 0 108 -1 117 -22 7 -18 9 -19 9 -5 1 15 12
17 96 17 84 0 95 -2 96 -17 0 -14 2 -13 9 5 9 20 16 22 85 22 l75 0 -2 178 -3
177 -85 6 c-49 3 -99 13 -117 22 -26 14 -62 17 -188 17 -154 0 -155 0 -155
-23 0 -29 32 -117 59 -160 23 -37 99 -83 170 -103 44 -12 42 -12 -70 -13
l-116 -1 -52 158 c-28 86 -56 166 -61 177 -5 11 -43 117 -83 235 l-74 215 -52
5 c-29 3 -55 2 -57 -2z"/>
<path d="M7461 2081 c-24 -3 -48 -13 -52 -21 -19 -35 -42 -98 -120 -330 -46
-135 -89 -256 -96 -270 -7 -13 -20 -57 -29 -97 l-18 -73 -120 1 c-116 0 -119
1 -76 13 78 23 115 43 157 89 43 47 62 89 66 152 l2 40 -144 3 c-123 2 -152 0
-202 -18 -33 -11 -75 -20 -94 -20 l-35 0 -2 -160 c-1 -88 -2 -168 -2 -177 -1
-14 9 -19 43 -23 32 -4 46 -10 52 -25 6 -15 8 -16 8 -4 1 14 28 18 218 25
l216 9 18 64 c10 35 27 83 38 105 10 23 35 97 56 165 20 68 41 131 46 140 14
25 129 384 129 404 0 9 -3 16 -7 15 -5 0 -28 -4 -52 -7z"/>
<path d="M3365 2028 c-36 -59 -37 -68 -9 -78 41 -16 44 -13 44 50 0 33 -4 60
-8 60 -4 0 -17 -15 -27 -32z"/>
<path d="M4027 1918 c-9 -180 -9 -861 -1 -882 4 -11 19 -16 44 -16 l37 0 7
-187 c3 -104 9 -218 12 -254 l6 -66 -32 -16 c-18 -9 -47 -19 -66 -23 -32 -6
-54 -28 -54 -54 0 -7 44 -10 143 -8 l142 3 22 230 c12 127 22 255 22 286 l1
56 71 5 c45 4 75 11 80 19 7 11 9 10 9 -3 0 -13 -8 -18 -25 -18 -23 0 -25 -3
-25 -52 0 -80 20 -480 26 -505 4 -23 7 -23 149 -23 80 0 145 3 145 8 0 21 -33
51 -63 57 -17 4 -47 13 -65 22 -28 12 -32 18 -28 41 3 15 13 110 21 212 23
274 22 270 55 270 l28 0 6 333 c3 182 2 415 -2 517 l-7 185 -326 3 -326 2 -6
-142z m261 -917 l27 1 -25 8 c-16 5 8 8 70 8 107 0 90 -11 -32 -22 -71 -6 -78
-5 -77 11 0 11 3 13 6 6 2 -7 17 -13 31 -12z"/>
<path d="M4968 2023 c-16 -24 -28 -47 -28 -53 0 -12 47 -36 56 -28 3 3 4 32 2
64 l-3 59 -27 -42z"/>
<path d="M5477 2053 c-4 -3 -7 -71 -7 -150 l0 -143 -35 0 c-33 0 -35 -2 -35
-32 0 -18 -3 -57 -7 -86 l-6 -52 -191 2 -191 3 -3 83 -3 83 -45 -3 -45 -3 0
-202 c1 -409 -3 -361 29 -365 l27 -3 13 -289 c14 -319 17 -300 -50 -311 -22
-4 -38 -12 -38 -20 0 -7 -3 -20 -6 -29 -5 -14 9 -16 120 -16 l126 0 0 43 c0
43 36 478 46 555 4 32 9 42 24 42 10 0 21 -3 24 -8 2 -4 10 -148 17 -320 l13
-312 123 0 c111 0 123 2 123 18 0 27 -13 39 -50 46 -63 12 -62 -4 -35 301 14
154 25 285 25 292 0 7 7 13 15 13 12 0 15 -16 15 -85 l0 -85 39 0 c35 0 40 -3
45 -27 5 -25 21 -380 21 -458 0 -27 -5 -31 -65 -51 -58 -20 -90 -44 -90 -66 0
-4 63 -8 140 -8 106 0 142 3 146 13 13 34 43 359 44 470 l0 97 -30 0 c-22 0
-30 5 -30 18 0 13 2 14 9 4 5 -8 38 -16 84 -19 l77 -6 1 -51 c0 -28 4 -116 8
-196 7 -119 6 -147 -5 -156 -19 -16 -18 -74 1 -74 10 0 15 -10 15 -31 0 -67 6
-69 160 -69 78 0 140 4 140 9 0 27 -17 43 -64 56 -68 20 -90 35 -55 35 28 0
39 16 39 54 0 12 21 71 46 131 25 61 57 139 71 175 14 36 30 70 34 75 4 6 21
46 39 90 46 119 93 228 103 243 6 8 38 12 93 12 l84 0 0 128 0 127 -137 -10
c-175 -13 -192 -21 -221 -114 -11 -36 -30 -101 -43 -143 -12 -43 -26 -78 -30
-78 -5 0 -6 100 -2 223 3 122 2 315 -2 430 l-7 207 -322 0 c-178 0 -326 -3
-329 -7z m-257 -867 c0 -2 -7 -6 -15 -10 -8 -3 -15 -1 -15 4 0 6 7 10 15 10 8
0 15 -2 15 -4z m690 -181 c0 -13 -11 -15 -67 -9 -131 12 -145 22 -35 23 85 1
102 -2 102 -14z"/>
<path d="M5868 1003 c6 -2 18 -2 25 0 6 3 1 5 -13 5 -14 0 -19 -2 -12 -5z"/>
<path d="M3800 1977 c0 -28 3 -35 15 -31 8 4 15 14 15 24 0 10 -7 23 -15 30
-13 11 -15 7 -15 -23z"/>
<path d="M3307 1753 c-9 -8 -9 -283 0 -441 6 -118 7 -122 29 -122 20 0 23 -6
28 -62 3 -35 7 -119 10 -188 l5 -125 -49 150 c-27 83 -54 157 -58 165 -14 23
-72 216 -72 237 0 10 -4 23 -8 28 -5 6 -16 30 -25 55 -9 25 -26 51 -38 58 -23
14 -213 36 -236 28 -10 -4 -13 -36 -13 -126 l0 -120 54 0 c31 0 58 -5 64 -12
6 -7 27 -56 48 -108 20 -52 40 -99 45 -105 4 -5 44 -102 90 -215 45 -113 89
-215 97 -227 10 -16 12 -34 7 -59 -4 -26 -2 -39 7 -45 16 -10 168 -11 419 -2
173 6 185 7 184 25 -2 25 -13 33 -68 48 -45 12 -48 15 -43 39 5 19 53 503 56
554 0 4 7 7 15 7 13 0 15 38 15 285 l0 285 -34 0 c-33 0 -34 -2 -42 -47 -7
-45 -11 -81 -13 -110 -1 -10 -46 -13 -191 -13 l-190 0 0 85 0 85 -43 0 c-24 0
-47 -3 -50 -7z m303 -573 c0 -5 -4 -10 -10 -10 -5 0 -10 5 -10 10 0 6 5 10 10
10 6 0 10 -4 10 -10z m6 -28 c10 -7 17 -117 30 -501 l4 -124 -26 26 c-16 17
-36 25 -55 25 -17 -1 -34 3 -38 8 -5 5 -5 38 -1 74 5 36 16 157 25 270 9 113
18 211 20 218 5 13 24 16 41 4z"/>
<path d="M2453 1163 c26 -2 67 -2 90 0 23 2 2 3 -48 3 -49 0 -68 -1 -42 -3z"/>
<path d="M6853 1163 c26 -2 68 -2 95 0 26 2 4 3 -48 3 -52 0 -74 -1 -47 -3z"/>
<path d="M5174 565 c-3 -8 -3 -19 1 -25 10 -16 45 7 39 25 -8 19 -33 19 -40 0z"/>
<path d="M2173 503 c-16 -6 -17 -39 -2 -49 6 -3 17 0 25 8 12 11 12 17 2 30
-7 9 -19 14 -25 11z"/>
<path d="M6880 494 c-10 -11 -10 -17 0 -28 15 -19 40 -10 40 14 0 24 -25 33
-40 14z"/>
<path d="M7189 494 c-10 -12 -9 -18 3 -31 19 -18 38 -10 38 17 0 24 -25 33
-41 14z"/>
<path d="M2470 481 c0 -20 25 -35 41 -25 5 3 9 14 9 25 0 14 -7 19 -25 19 -18
0 -25 -5 -25 -19z"/>
<path d="M6562 480 c0 -14 2 -19 5 -12 2 6 2 18 0 25 -3 6 -5 1 -5 -13z"/>
<path d="M3994 269 c-8 -14 21 -43 35 -35 19 12 13 46 -8 46 -11 0 -23 -5 -27
-11z"/>
<path d="M4330 261 c0 -22 21 -33 40 -21 18 11 4 40 -20 40 -13 0 -20 -7 -20
-19z"/>
<path d="M4664 269 c-3 -6 1 -18 10 -27 15 -15 17 -15 32 0 9 9 13 21 10 27
-9 14 -43 14 -52 0z"/>
<path d="M5436 272 c-3 -5 0 -17 7 -26 15 -21 49 -11 45 13 -3 18 -43 28 -52
13z"/>
<path d="M5774 269 c-3 -6 1 -18 10 -27 15 -15 17 -15 32 0 9 9 13 21 10 27
-9 14 -43 14 -52 0z"/>
<path d="M6113 264 c-7 -18 14 -35 34 -27 7 3 13 14 13 24 0 24 -38 26 -47 3z"/>
</g>
</svg>
